<svg width="24" height="22" viewBox="0 0 24 22" fill="none" xmlns="http://www.w3.org/2000/svg">
<path d="M12.8872 -3.05176e-05C8.50386 -3.05176e-05 4.63554 2.5034 2.83422 6.29848L1.58119 3.72321L0 4.47704L2.60226 9.8236L8.00394 7.24774L7.24219 5.68299L4.42823 7.02449C5.94833 3.83759 9.20147 1.73708 12.8872 1.73708C18.0474 1.73708 22.2454 5.89243 22.2454 11C22.2454 16.1075 18.0474 20.263 12.8872 20.263C9.8487 20.263 6.98765 18.7937 5.23425 16.3329L3.79979 17.3342C5.88232 20.2558 9.27927 22 12.8872 22C19.0146 22 24 17.0654 24 11C24 4.93452 19.0147 -3.05176e-05 12.8872 -3.05176e-05Z" fill="#CB0000"/>
</svg>
