<svg width="97" height="96" viewBox="0 0 97 96" fill="none" xmlns="http://www.w3.org/2000/svg">
<path d="M25.8219 36.9616H31.4469V32.2501H45.6875V64.2842H40.8132V69.9092H56.1868V64.2842H51.3125V32.2501H65.5531V36.9616H71.1781V26.6251H25.8219V36.9616Z" fill="#676767"/>
<path d="M89.7969 75.1885V20.8116C93.7263 19.1907 96.5 15.3203 96.5 10.8126C96.5 4.8505 91.6496 6.10352e-05 85.6874 6.10352e-05C81.1797 6.10352e-05 77.3094 2.77375 75.6884 6.70319H21.3116C19.6906 2.77375 15.8202 6.10352e-05 11.3126 6.10352e-05C5.35044 6.10352e-05 0.5 4.8505 0.5 10.8126C0.5 15.3203 3.27369 19.1909 7.20312 20.8118V75.1885C3.27369 76.8094 0.5 80.6798 0.5 85.1875C0.5 91.1496 5.35044 96.0001 11.3126 96.0001C15.8202 96.0001 19.6906 93.2264 21.3116 89.2969H75.6884C77.3094 93.2264 81.1797 96.0001 85.6874 96.0001C91.6496 96.0001 96.5 91.1496 96.5 85.1875C96.5 80.6798 93.7263 76.8094 89.7969 75.1885ZM74.9834 83.6719H22.0166C21.3468 78.9207 17.5792 75.1531 12.8281 74.4835V21.5166C17.5792 20.8471 21.3468 17.0792 22.0166 12.3282H74.9834C75.6532 17.0794 79.4208 20.8471 84.1719 21.5166V74.4833C79.4208 75.1531 75.6532 78.9207 74.9834 83.6719ZM85.6874 5.62506C88.5479 5.62506 90.875 7.95212 90.875 10.8126C90.875 13.6731 88.5479 16.0002 85.6874 16.0002C82.8271 16.0002 80.5001 13.6731 80.5001 10.8126C80.5001 7.95212 82.8271 5.62506 85.6874 5.62506ZM11.3126 5.62506C14.1729 5.62506 16.4999 7.95212 16.4999 10.8126C16.4999 13.6731 14.1729 16.0002 11.3126 16.0002C8.45206 16 6.125 13.6729 6.125 10.8126C6.125 7.95212 8.45206 5.62506 11.3126 5.62506ZM11.3126 90.3751C8.45206 90.3751 6.125 88.048 6.125 85.1875C6.125 82.327 8.45206 79.9999 11.3126 79.9999C14.1729 79.9999 16.4999 82.327 16.4999 85.1875C16.4999 88.048 14.1729 90.3751 11.3126 90.3751ZM85.6874 90.3751C82.8271 90.3751 80.5001 88.048 80.5001 85.1875C80.5001 82.327 82.8271 79.9999 85.6874 79.9999C88.5479 79.9999 90.875 82.327 90.875 85.1875C90.875 88.048 88.5479 90.3751 85.6874 90.3751Z" fill="#676767"/>
</svg>
