<svg width="48" height="48" viewBox="0 0 48 48" fill="none" xmlns="http://www.w3.org/2000/svg">
<path d="M41.4873 7.45532H47.0625C47.5803 7.45532 48 7.03565 48 6.51782V0.9375C48 0.419678 47.5803 0 47.0625 0H41.4873C40.9695 0 40.5498 0.419678 40.5498 0.9375V2.79016H27.7251V0.9375C27.7251 0.419678 27.3054 0 26.7876 0H21.2124C20.6946 0 20.2749 0.419678 20.2749 0.9375V2.79016H7.4502V0.9375C7.4502 0.419678 7.03052 0 6.5127 0H0.9375C0.419678 0 0 0.419678 0 0.9375V6.51782C0 7.03565 0.419678 7.45532 0.9375 7.45532H6.5127C7.03052 7.45532 7.4502 7.03565 7.4502 6.51782V4.66516H15.249C12.5028 5.91028 10.0269 7.73914 8.0094 10.0518C4.84607 13.678 3.01721 18.2666 2.80591 23.0625H0.9375C0.419678 23.0625 0 23.4822 0 24V29.5803C0 30.0981 0.419678 30.5178 0.9375 30.5178H6.5127C7.03052 30.5178 7.4502 30.0981 7.4502 29.5803V24C7.4502 23.4822 7.03052 23.0625 6.5127 23.0625H4.68311C5.11523 14.2277 11.6144 6.70459 20.2749 5.01343V6.51819C20.2749 7.03601 20.6946 7.45569 21.2124 7.45569H26.7876C27.3054 7.45569 27.7251 7.03601 27.7251 6.51819V5.01343C36.3856 6.70459 42.8848 14.2277 43.3169 23.0625H41.4873C40.9695 23.0625 40.5498 23.4822 40.5498 24V29.5803C40.5498 30.0981 40.9695 30.5178 41.4873 30.5178H47.0625C47.5803 30.5178 48 30.0981 48 29.5803V24C48 23.4822 47.5803 23.0625 47.0625 23.0625H45.1941C44.9828 18.2666 43.1539 13.678 39.9906 10.0518C37.9731 7.73914 35.4972 5.91028 32.751 4.66516H40.5498V6.51819C40.5498 7.03564 40.9695 7.45532 41.4873 7.45532ZM5.5752 5.58032H1.875V1.875H5.5752V5.58032ZM5.5752 28.6428H1.875V24.9375H5.5752V28.6428ZM46.125 28.6428H42.4248V24.9375H46.125V28.6428ZM25.8501 5.58032H22.1499V1.875H25.8501V5.58032ZM42.4248 1.875H46.125V5.58032H42.4248V1.875Z" fill="#7209B7"/>
<path d="M24.821 10.329C24.6562 10.0298 24.3417 9.84375 24 9.84375C23.6583 9.84375 23.3438 10.0298 23.179 10.329L19.285 17.3983C19.0353 17.8521 19.2004 18.4222 19.6542 18.6716C20.1072 18.9214 20.6777 18.7566 20.9275 18.3029L23.0625 14.4265V21.3402C21.761 21.7416 20.8125 22.9556 20.8125 24.3871C20.8125 26.1445 22.2426 27.5746 24 27.5746C25.7574 27.5746 27.1875 26.1445 27.1875 24.3871C27.1875 22.9556 26.239 21.7416 24.9375 21.3402V14.4265L31.3693 26.1042C29.2562 28.2415 27.8159 30.9829 27.2563 33.9375H20.7437C20.1837 30.9829 18.7434 28.2415 16.6307 26.1042L17.7052 24.1534C17.955 23.7001 17.7898 23.1299 17.3364 22.8801C16.8831 22.6304 16.3125 22.7952 16.0627 23.2489L14.6418 25.8292C14.4331 26.2079 14.5107 26.6807 14.8297 26.9729C16.8486 28.8219 18.2505 31.2711 18.8306 33.9375H17.9575C16.4066 33.9375 15.145 35.1995 15.145 36.75C15.145 37.8442 15.7731 38.7935 16.6875 39.2582V47.0625C16.6875 47.5803 17.1072 48 17.625 48C18.1428 48 18.5625 47.5803 18.5625 47.0625V39.5625H29.4375V47.0625C29.4375 47.5803 29.8572 48 30.375 48C30.8928 48 31.3125 47.5803 31.3125 47.0625V39.2582C32.2269 38.7935 32.855 37.8439 32.855 36.75C32.855 35.1991 31.5934 33.9375 30.0425 33.9375H29.1694C29.7495 31.2708 31.1514 28.8219 33.1703 26.9725C33.4893 26.6803 33.5669 26.2079 33.3582 25.8289L24.821 10.329ZM24 25.6996C23.2764 25.6996 22.6875 25.1107 22.6875 24.3871C22.6875 23.6631 23.2764 23.0746 24 23.0746C24.7236 23.0746 25.3125 23.6631 25.3125 24.3871C25.3125 25.1107 24.7236 25.6996 24 25.6996ZM30.98 36.75C30.98 37.2671 30.5596 37.6875 30.0425 37.6875H17.9575C17.4404 37.6875 17.02 37.2671 17.02 36.75C17.02 36.2329 17.4404 35.8125 17.9575 35.8125H30.0425C30.5596 35.8125 30.98 36.2329 30.98 36.75Z" fill="#7209B7"/>
<path d="M18.434 21.7614C18.6808 21.7614 18.9225 21.6617 19.0968 21.4874C19.2711 21.312 19.3715 21.0714 19.3715 20.8239C19.3715 20.577 19.2711 20.3364 19.0968 20.161C18.9225 19.9867 18.6808 19.8864 18.434 19.8864C18.1864 19.8864 17.9447 19.9867 17.7704 20.161C17.5961 20.3364 17.4965 20.577 17.4965 20.8239C17.4965 21.0714 17.5961 21.312 17.7704 21.4874C17.9447 21.6617 18.1864 21.7614 18.434 21.7614Z" fill="#7209B7"/>
</svg>
