<svg width="97" height="96" viewBox="0 0 97 96" fill="none" xmlns="http://www.w3.org/2000/svg">
<path d="M1.51343 17.6384C1.19239 17.3212 0.937567 16.9438 0.763671 16.528C0.589774 16.1122 0.500244 15.6662 0.500244 15.2158C0.500244 14.7653 0.589774 14.3194 0.763671 13.9036C0.937567 13.4878 1.19239 13.1104 1.51343 12.7932L13.0908 1.26029C13.7358 0.617781 14.6106 0.256822 15.5228 0.256822C15.9744 0.256822 16.4216 0.345439 16.8389 0.517615C17.2562 0.689791 17.6353 0.942152 17.9547 1.26029C18.2741 1.57843 18.5274 1.95612 18.7002 2.37179C18.8731 2.78745 18.962 3.23297 18.962 3.68288C18.962 4.1328 18.8731 4.57831 18.7002 4.99398C18.5274 5.40965 18.2741 5.78733 17.9547 6.10547L6.3773 17.6384C6.05888 17.9582 5.68004 18.212 5.26264 18.3852C4.84524 18.5585 4.39754 18.6477 3.94537 18.6477C3.49319 18.6477 3.04549 18.5585 2.62809 18.3852C2.21069 18.212 1.83185 17.9582 1.51343 17.6384ZM3.94537 37.8039C4.39615 37.8065 4.84302 37.7204 5.26035 37.5506C5.67767 37.3808 6.05725 37.1306 6.3773 36.8144L37.2047 6.10547C37.524 5.78733 37.7774 5.40965 37.9502 4.99398C38.123 4.57831 38.212 4.1328 38.212 3.68288C38.212 3.23297 38.123 2.78745 37.9502 2.37179C37.7774 1.95612 37.524 1.57843 37.2047 1.26029C36.8853 0.942152 36.5062 0.689791 36.0889 0.517615C35.6716 0.345439 35.2244 0.256822 34.7727 0.256822C33.8606 0.256822 32.9858 0.617781 32.3408 1.26029L1.51343 31.9692C1.19239 32.2864 0.937567 32.6638 0.763671 33.0796C0.589774 33.4954 0.500244 33.9413 0.500244 34.3918C0.500244 34.8422 0.589774 35.2882 0.763671 35.704C0.937567 36.1198 1.19239 36.4972 1.51343 36.8144C1.83349 37.1306 2.21306 37.3808 2.63039 37.5506C3.04771 37.7204 3.49458 37.8065 3.94537 37.8039ZM3.94537 57.1164C4.39615 57.119 4.84302 57.0329 5.26035 56.8631C5.67767 56.6933 6.05725 56.4431 6.3773 56.1269L56.6602 6.10547C57.0411 5.81033 57.3552 5.43833 57.5817 5.01384C57.8083 4.58935 57.9422 4.12196 57.9748 3.64231C58.0074 3.16265 57.9378 2.68155 57.7707 2.23054C57.6036 1.77953 57.3427 1.36878 57.0051 1.02523C56.6675 0.681676 56.2608 0.413066 55.8118 0.237003C55.3627 0.0609397 54.8813 -0.0186015 54.3992 0.00359221C53.9171 0.0257859 53.4452 0.149214 53.0143 0.365786C52.5834 0.582358 52.2034 0.887185 51.899 1.26029L1.51343 51.4523C1.19239 51.7695 0.937567 52.1469 0.763671 52.5627C0.589774 52.9785 0.500244 53.4244 0.500244 53.8749C0.500244 54.3253 0.589774 54.7713 0.763671 55.1871C0.937567 55.6029 1.19239 55.9803 1.51343 56.2975C2.17628 56.8988 3.04941 57.2173 3.94537 57.1846V57.1164ZM3.94537 76.4288C4.39615 76.4314 4.84302 76.3454 5.26035 76.1756C5.67767 76.0058 6.05725 75.7556 6.3773 75.4393L76.0471 6.10547C76.6921 5.46296 77.0545 4.59153 77.0545 3.68288C77.0545 2.77423 76.6921 1.9028 76.0471 1.26029C75.4022 0.617781 74.5274 0.256822 73.6152 0.256822C72.7031 0.256822 71.8283 0.617781 71.1833 1.26029L1.51343 70.6624C1.19239 70.9796 0.937567 71.357 0.763671 71.7728C0.589774 72.1886 0.500244 72.6346 0.500244 73.085C0.500244 73.5354 0.589774 73.9814 0.763671 74.3972C0.937567 74.813 1.19239 75.1904 1.51343 75.5076C1.83349 75.8238 2.21306 76.074 2.63039 76.2438C3.04771 76.4136 3.49458 76.4997 3.94537 76.4971V76.4288ZM95.4341 1.36265C95.1157 1.04284 94.7369 0.789003 94.3195 0.615775C93.9021 0.442547 93.4544 0.353361 93.0022 0.353361C92.55 0.353361 92.1023 0.442547 91.6849 0.615775C91.2675 0.789003 90.8887 1.04284 90.5703 1.36265L1.51343 90.0772C1.19239 90.3944 0.937567 90.7718 0.763671 91.1876C0.589774 91.6034 0.500244 92.0494 0.500244 92.4998C0.500244 92.9503 0.589774 93.3963 0.763671 93.812C0.937567 94.2278 1.19239 94.6052 1.51343 94.9224C1.83185 95.2422 2.21069 95.4961 2.62809 95.6693C3.04549 95.8425 3.49319 95.9317 3.94537 95.9317C4.39754 95.9317 4.84524 95.8425 5.26264 95.6693C5.68004 95.4961 6.05888 95.2422 6.3773 94.9224L95.4341 6.20784C95.771 5.88908 96.0392 5.50539 96.2225 5.08012C96.4057 4.65484 96.5002 4.19687 96.5002 3.73406C96.5002 3.27126 96.4057 2.81329 96.2225 2.38801C96.0392 1.96274 95.771 1.57905 95.4341 1.26029V1.36265ZM90.5703 20.7434L21.0717 89.9749C20.7506 90.2921 20.4958 90.6695 20.3219 91.0853C20.148 91.5011 20.0585 91.947 20.0585 92.3975C20.0585 92.8479 20.148 93.2939 20.3219 93.7097C20.4958 94.1255 20.7506 94.5029 21.0717 94.8201C21.3901 95.1399 21.7689 95.3937 22.1863 95.5669C22.6037 95.7402 23.0514 95.8294 23.5036 95.8294C23.9558 95.8294 24.4035 95.7402 24.8209 95.5669C25.2383 95.3937 25.6171 95.1399 25.9356 94.8201L95.4341 25.418C95.8946 24.7524 96.1029 23.9456 96.0219 23.1413C95.941 22.337 95.576 21.5874 94.992 21.0262C94.408 20.4649 93.643 20.1284 92.8332 20.0766C92.0234 20.0248 91.2215 20.2611 90.5703 20.7434ZM90.5703 40.0559L40.2874 89.9749C39.9664 90.2921 39.7115 90.6695 39.5376 91.0853C39.3637 91.5011 39.2742 91.947 39.2742 92.3975C39.2742 92.8479 39.3637 93.2939 39.5376 93.7097C39.7115 94.1255 39.9664 94.5029 40.2874 94.8201C40.6058 95.1399 40.9847 95.3937 41.4021 95.5669C41.8195 95.7402 42.2672 95.8294 42.7193 95.8294C43.1715 95.8294 43.6192 95.7402 44.0366 95.5669C44.454 95.3937 44.8329 95.1399 45.1513 94.8201L95.4341 44.6281C96.0791 43.9856 96.4415 43.1141 96.4415 42.2055C96.4415 41.2968 96.0791 40.4254 95.4341 39.7829C94.7891 39.1404 93.9143 38.7794 93.0022 38.7794C92.09 38.7794 91.2152 39.1404 90.5703 39.7829V40.0559ZM90.5703 59.3683L59.7429 90.0772C59.4219 90.3944 59.167 90.7718 58.9931 91.1876C58.8192 91.6034 58.7297 92.0494 58.7297 92.4998C58.7297 92.9503 58.8192 93.3963 58.9931 93.812C59.167 94.2278 59.4219 94.6052 59.7429 94.9224C60.0613 95.2422 60.4402 95.4961 60.8576 95.6693C61.275 95.8425 61.7227 95.9317 62.1748 95.9317C62.627 95.9317 63.0747 95.8425 63.4921 95.6693C63.9095 95.4961 64.2883 95.2422 64.6068 94.9224L95.4341 64.2135C96.0791 63.571 96.4415 62.6996 96.4415 61.7909C96.4415 60.8823 96.0791 60.0109 95.4341 59.3683C94.7891 58.7258 93.9143 58.3649 93.0022 58.3649C92.09 58.3649 91.2152 58.7258 90.5703 59.3683ZM90.5703 78.6126L78.9929 90.1455C78.6718 90.4627 78.417 90.8401 78.2431 91.2559C78.0692 91.6717 77.9797 92.1176 77.9797 92.5681C77.9797 93.0185 78.0692 93.4645 78.2431 93.8803C78.417 94.2961 78.6718 94.6735 78.9929 94.9907C79.3113 95.3105 79.6901 95.5643 80.1075 95.7375C80.5249 95.9108 80.9726 96 81.4248 96C81.877 96 82.3247 95.9108 82.7421 95.7375C83.1595 95.5643 83.5383 95.3105 83.8567 94.9907L95.4341 83.4578C95.7535 83.1396 96.0068 82.7619 96.1797 82.3463C96.3525 81.9306 96.4415 81.4851 96.4415 81.0352C96.4415 80.5853 96.3525 80.1398 96.1797 79.7241C96.0068 79.3084 95.7535 78.9307 95.4341 78.6126C95.1148 78.2944 94.7356 78.0421 94.3183 77.8699C93.9011 77.6977 93.4538 77.6091 93.0022 77.6091C92.5505 77.6091 92.1033 77.6977 91.686 77.8699C91.2688 78.0421 90.8896 78.2944 90.5703 78.6126Z" fill="#676767"/>
</svg>
