<svg width="291" height="290" viewBox="0 0 291 290" fill="none" xmlns="http://www.w3.org/2000/svg">
<path d="M250.783 205.493L167.649 58.3773C163.027 50.1969 154.747 45.3125 145.501 45.3125C136.255 45.3125 127.974 50.1969 123.352 58.3773L40.2181 205.493C35.5949 213.674 35.5949 223.442 40.2181 231.623C44.8412 239.803 53.1206 244.688 62.3669 244.688H228.634C237.88 244.688 246.16 239.803 250.783 231.623C255.407 223.442 255.407 213.674 250.783 205.493ZM239.748 225.114C237.428 229.219 233.273 231.669 228.634 231.669H62.3669C57.7272 231.669 53.5726 229.219 51.2532 225.114C48.9338 221.009 48.9338 216.108 51.2532 212.003L134.388 64.8872C136.707 60.7822 140.862 58.3317 145.501 58.3317C150.14 58.3317 154.295 60.7822 156.614 64.8872L239.748 212.003C242.067 216.108 242.067 221.009 239.748 225.114Z" fill="#CB0000"/>
<path d="M151.871 110.283H139.129V175.378H151.871V110.283Z" fill="#CB0000"/>
<path d="M145.501 188.398C140.816 188.398 137.005 192.291 137.005 197.077C137.005 201.863 140.816 205.757 145.501 205.757C150.184 205.757 153.996 201.863 153.996 197.077C153.996 192.291 150.185 188.398 145.501 188.398Z" fill="#CB0000"/>
</svg>
