<svg width="97" height="88" viewBox="0 0 97 88" fill="none" xmlns="http://www.w3.org/2000/svg">
<path d="M70.309 87.9993C69.637 87.9993 68.949 87.9153 68.269 87.7353L6.41762 71.1715C2.17766 70.0035 -0.350311 65.6116 0.761678 61.3716L8.5656 32.2839C8.8536 31.2159 9.94959 30.5959 11.0136 30.8679C12.0816 31.1519 12.7136 32.2519 12.4296 33.3159L4.62964 62.3956C4.07365 64.5156 5.34563 66.7235 7.46961 67.3115L69.297 83.8674C71.421 84.4274 73.613 83.1634 74.165 81.0514L77.2889 69.4755C77.5769 68.4075 78.6729 67.7715 79.7409 68.0635C80.8089 68.3515 81.4369 69.4515 81.1529 70.5155L78.0329 82.0754C77.0929 85.6354 73.853 87.9993 70.309 87.9993Z" fill="#676767"/>
<path d="M88.4968 63.9996H24.4974C20.0855 63.9996 16.4975 60.4116 16.4975 55.9997V8.00013C16.4975 3.58818 20.0855 0.000213623 24.4974 0.000213623H88.4968C92.9088 0.000213623 96.4967 3.58818 96.4967 8.00013V55.9997C96.4967 60.4116 92.9088 63.9996 88.4968 63.9996ZM24.4974 4.00017C22.2935 4.00017 20.4975 5.79616 20.4975 8.00013V55.9997C20.4975 58.2036 22.2935 59.9996 24.4974 59.9996H88.4968C90.7008 59.9996 92.4968 58.2036 92.4968 55.9997V8.00013C92.4968 5.79616 90.7008 4.00017 88.4968 4.00017H24.4974Z" fill="#676767"/>
<path d="M36.4973 27.9999C32.0854 27.9999 28.4974 24.412 28.4974 20C28.4974 15.5881 32.0854 12.0001 36.4973 12.0001C40.9093 12.0001 44.4972 15.5881 44.4972 20C44.4972 24.412 40.9093 27.9999 36.4973 27.9999ZM36.4973 16.0001C34.2934 16.0001 32.4974 17.796 32.4974 20C32.4974 22.204 34.2934 24 36.4973 24C38.7013 24 40.4973 22.204 40.4973 20C40.4973 17.796 38.7013 16.0001 36.4973 16.0001Z" fill="#676767"/>
<path d="M18.7775 59.7196C18.2655 59.7196 17.7535 59.5236 17.3615 59.1356C16.5815 58.3556 16.5815 57.0876 17.3615 56.3077L36.2533 37.4158C38.5173 35.1519 42.4733 35.1519 44.7372 37.4158L50.3612 43.0398L65.929 24.36C67.061 23.004 68.725 22.216 70.497 22.2H70.541C72.293 22.2 73.953 22.96 75.0969 24.292L96.0167 48.6997C96.7367 49.5357 96.6407 50.7997 95.8007 51.5197C94.9648 52.2397 93.7048 52.1477 92.9808 51.3037L72.061 26.8959C71.673 26.448 71.137 26.2 70.541 26.2C70.125 26.164 69.393 26.452 69.005 26.9199L52.0332 47.2837C51.6732 47.7157 51.1492 47.9757 50.5852 47.9997C50.0172 48.0397 49.4772 47.8157 49.0812 47.4157L41.9093 40.2438C41.1533 39.4918 39.8373 39.4918 39.0813 40.2438L20.1895 59.1356C19.8015 59.5236 19.2895 59.7196 18.7775 59.7196Z" fill="#676767"/>
</svg>
